# xmcd CD database file
#
# Track frame offsets:
#	150
#	15153
#	29993
#	45303
#	62320
#	77768
#	92075
#	108993
#	126080
#	140538
#	156818
#	175285
#	189585
#	207240
#	223805
#	228525
#	233323
#	238065
#	242855
#	247655
#	252565
#	257345
#	262165
#	266938
#	271663
#	276448
#	281103
#	285888
#	290790
#	293323
#	295835
#	298285
#	300830
#	303343
#	305940
#	308473
#	311013
#	313535
#	316018
#	318525
#	321078
#	323595
#
# Disc length: 4347 seconds
#
# Revision: 0
# Processed by: cddbd v1.4PL0 Copyright (c) Steve Scherf et al.
# Submitted via: CDex 1.51
#
DISCID=6810f92a
DTITLE=Leonardo Svidercoschi - People And PLaces
DYEAR=1994
DGENRE=New Age
TTITLE0=Alchemy
TTITLE1=Cargo
TTITLE2=Baya
TTITLE3=Places
TTITLE4=Yellow Danger
TTITLE5=Winter Moon
TTITLE6=Nile
TTITLE7=North Islands
TTITLE8=Autumn Rain
TTITLE9=Zion
TTITLE10=Borealis
TTITLE11=Circles
TTITLE12=Saigon
TTITLE13=Gate Of China
TTITLE14=Alchemy 2
TTITLE15=Cargo 2
TTITLE16=Baya 2
TTITLE17=Places 2
TTITLE18=Yellow Danger 2
TTITLE19=Winter Moon 2
TTITLE20=Nile 2
TTITLE21=North Islands 2
TTITLE22=Autumn Rain 2
TTITLE23=Zion 2
TTITLE24=Borealis 2
TTITLE25=Circles 2
TTITLE26=Saigon 2
TTITLE27=Gate Of China 2
TTITLE28=Alchemy 3
TTITLE29=Cargo 3
TTITLE30=Baya 3
TTITLE31=Places 3
TTITLE32=Yellow Danger 3
TTITLE33=Winter Moon 3
TTITLE34=Nile 3
TTITLE35=North Islands 3
TTITLE36=Autumn Rain 3
TTITLE37=Zion 3
TTITLE38=Borealis 3
TTITLE39=Circles 3
TTITLE40=Saigon 3
TTITLE41=Gate Of China 3
EXTD=YEAR: 1994
EXTT0=
EXTT1=
EXTT2=
EXTT3=
EXTT4=
EXTT5=
EXTT6=
EXTT7=
EXTT8=
EXTT9=
EXTT10=
EXTT11=
EXTT12=
EXTT13=
EXTT14=
EXTT15=
EXTT16=
EXTT17=
EXTT18=
EXTT19=
EXTT20=
EXTT21=
EXTT22=
EXTT23=
EXTT24=
EXTT25=
EXTT26=
EXTT27=
EXTT28=
EXTT29=
EXTT30=
EXTT31=
EXTT32=
EXTT33=
EXTT34=
EXTT35=
EXTT36=
EXTT37=
EXTT38=
EXTT39=
EXTT40=
EXTT41=
PLAYORDER=
